<?xml version="1.0" encoding="UTF-8"?>
<svg version="1.1" xmlns="http://www.w3.org/2000/svg" width="864" height="864">
<path d="M0 0 C285.12 0 570.24 0 864 0 C864 285.12 864 570.24 864 864 C578.88 864 293.76 864 0 864 C0 578.88 0 293.76 0 0 Z " fill="#ECF1F6" transform="translate(0,0)"/>
<path d="M0 0 C0.81398254 0.00060425 1.62796509 0.0012085 2.46661377 0.00183105 C14.69223229 0.0264148 26.70502294 0.36120409 38.8125 2.1875 C39.65683594 2.30577148 40.50117188 2.42404297 41.37109375 2.54589844 C94.9622569 10.18788941 145.20787898 32.63237604 186.8125 67.1875 C188.29169922 68.38826172 188.29169922 68.38826172 189.80078125 69.61328125 C197.46406366 75.93051346 204.58370388 82.74953734 211.625 89.75 C212.49616455 90.61197998 213.3673291 91.47395996 214.26489258 92.36206055 C220.20341472 98.32882103 225.5831095 104.59510054 230.8125 111.1875 C231.41376709 111.92943604 232.01503418 112.67137207 232.63452148 113.43579102 C288.15565839 181.97281361 309.82060313 270.35099453 300.93218994 357.22940063 C300.57936049 360.55130206 300.19883036 363.86930433 299.8125 367.1875 C299.68391602 368.30769531 299.55533203 369.42789062 299.42285156 370.58203125 C295.11512291 406.13997467 283.0732065 461.94850259 253.734375 485.8828125 C244.01053527 492.28375736 236.63432839 494.1856149 224.8125 493.1875 C222.12601303 492.58964097 219.47707639 491.87964921 216.8125 491.1875 C216.81329559 492.19624176 216.81409119 493.20498352 216.81491089 494.24429321 C216.81853168 503.80566326 216.79043717 513.36649912 216.7322216 522.92769814 C216.70329446 527.84190008 216.68508807 532.75562962 216.69238281 537.66992188 C216.69902715 542.42302577 216.67620401 547.1752004 216.63394547 551.92811203 C216.62290435 553.73071352 216.62203171 555.53341029 216.63207626 557.33601761 C216.70778209 572.93700278 214.2541492 584.40709638 203.05859375 596.1015625 C199.58107929 599.33111506 196.15771231 602.22807151 191.875 604.3125 C191.24722656 604.62445312 190.61945313 604.93640625 189.97265625 605.2578125 C179.48570066 609.77118579 165.85325015 610.33324264 155.125 606.125 C143.21185496 600.13486932 134.13423789 590.94789198 129.8125 578.1875 C127.71726635 571.3261568 127.50719572 564.95246478 127.49365234 557.8046875 C127.48360672 556.58432297 127.4735611 555.36395844 127.46321106 554.10661316 C127.43773279 550.78277586 127.42080892 547.45910699 127.40778303 544.13521194 C127.39208302 540.65316234 127.36531495 537.17119764 127.3397522 533.68920898 C127.29308543 527.10567921 127.25628303 520.52213324 127.22307932 513.93852329 C127.18477207 506.4390324 127.13538463 498.93962706 127.08509517 491.44020844 C126.98195547 476.02270091 126.89263706 460.60514529 126.8125 445.1875 C125.68184672 446.46415552 124.55337904 447.74274691 123.42584229 449.02215576 C122.48286978 450.08986773 122.48286978 450.08986773 121.52084732 451.17914963 C119.64474933 453.38470939 118.11494663 455.63144306 116.671875 458.140625 C116.16422607 459.00171875 115.65657715 459.8628125 115.13354492 460.75 C114.6151001 461.636875 114.09665527 462.52375 113.5625 463.4375 C106.34576183 475.40723396 98.03580876 488.34653444 83.875 492.5 C77.02434922 493.87279578 71.59845455 493.66138822 65.01953125 491.1640625 C63.55157104 490.61226318 63.55157104 490.61226318 62.05395508 490.04931641 C61.3142749 489.76491699 60.57459473 489.48051758 59.8125 489.1875 C59.81710896 489.90550309 59.82171793 490.62350618 59.82646656 491.36326694 C59.93724312 508.89339008 60.01980029 526.42342346 60.07156086 543.95382023 C60.09726197 552.43166292 60.13225606 560.90927092 60.18969727 569.38696289 C60.23978188 576.78247464 60.27184972 584.17781629 60.28294247 591.57349294 C60.28941923 595.48378578 60.30446852 599.39359229 60.34115028 603.3037281 C60.37550795 606.99662341 60.38547459 610.68883983 60.37803841 614.38187981 C60.38003447 616.35790627 60.40671877 618.33386163 60.43460083 620.30969238 C60.34804842 635.6150125 55.31795599 647.8148934 45.01171875 659.171875 C34.44460295 669.39957595 21.53303472 672.4883731 7.30029297 672.50219727 C-4.62964541 672.28451646 -14.99504278 666.908792 -23.703125 658.86328125 C-28.7486579 653.54208182 -32.57448065 648.05382822 -35.1875 641.1875 C-35.43353879 640.56814135 -35.67957758 639.94878269 -35.93307209 639.31065559 C-38.80234973 631.15262532 -38.62925035 623.0623549 -38.61987305 614.53857422 C-38.62890309 612.87208841 -38.63923334 611.20560922 -38.65075684 609.53913879 C-38.67820714 605.04192268 -38.687595 600.544833 -38.69361091 596.047544 C-38.70302589 591.33764533 -38.72923171 586.62783994 -38.75361633 581.91799927 C-38.79719932 573.01123513 -38.82579658 564.10448918 -38.84893972 555.19765103 C-38.87603545 545.05245542 -38.9199442 534.90735405 -38.96522844 524.76222587 C-39.05795721 503.90403468 -39.12969172 483.04581529 -39.1875 462.1875 C-39.87384521 463.22318115 -40.56019043 464.2588623 -41.26733398 465.32592773 C-42.1768548 466.69519343 -43.08644504 468.06441301 -43.99609375 469.43359375 C-44.44738647 470.11498413 -44.8986792 470.79637451 -45.36364746 471.49841309 C-52.41009458 482.0954205 -60.17269116 490.47136598 -73.1875 493.1875 C-82.91730182 494.42303039 -91.26240849 491.26297845 -99.1796875 485.78515625 C-101.34954298 484.05855919 -103.24152634 482.1600857 -105.1875 480.1875 C-105.19114563 481.01054123 -105.19479126 481.83358246 -105.19854736 482.68156433 C-105.23663791 490.49204498 -105.29372555 498.30205966 -105.37140274 506.11223888 C-105.41067417 510.12619186 -105.44296101 514.13993214 -105.45849609 518.15405273 C-105.47379844 522.03822449 -105.50847838 525.92181065 -105.55580902 529.80571938 C-105.57048456 531.27698955 -105.57853294 532.74834339 -105.57938385 534.21968651 C-105.59714389 549.55090523 -108.85666763 563.13896625 -119.1875 574.875 C-127.85147988 583.01798332 -140.71443299 587.74047874 -152.484375 587.43359375 C-161.91511812 586.57501454 -169.44747704 583.55258061 -177.1875 578.1875 C-178.095 577.56875 -179.0025 576.95 -179.9375 576.3125 C-188.02093874 568.67814119 -193.86196663 557.73846774 -194.34571838 546.51751709 C-194.36630911 545.01922425 -194.38163804 543.52085351 -194.39282227 542.02246094 C-194.40272186 541.2025769 -194.41262146 540.38269287 -194.42282104 539.53796387 C-194.45436483 536.83263011 -194.47916529 534.12727881 -194.50390625 531.421875 C-194.52448193 529.54428658 -194.54547856 527.66670273 -194.56687927 525.78912354 C-194.62203655 520.8506643 -194.6714738 515.9121637 -194.71972656 510.97363281 C-194.76998792 505.93290532 -194.82564979 500.89223779 -194.88085938 495.8515625 C-194.98836335 485.96359291 -195.08982555 476.07557123 -195.1875 466.1875 C-195.79005615 467.07300537 -196.3926123 467.95851074 -197.01342773 468.87084961 C-197.81998373 470.04812807 -198.62671506 471.22528643 -199.43359375 472.40234375 C-200.02642151 473.2750592 -200.02642151 473.2750592 -200.63122559 474.16540527 C-207.51195818 484.17791159 -215.09792252 490.64232579 -227.1875 493.1875 C-235.71661602 494.25973173 -243.04851009 491.49578283 -250.4375 487.375 C-258.18636772 481.21112795 -262.54872383 474.6565326 -267 465.8125 C-267.30053284 465.22236115 -267.60106567 464.63222229 -267.91070557 464.02420044 C-288.66284701 423.20609142 -302.17886794 376.24080829 -302.390625 330.22265625 C-302.39768463 329.19987579 -302.40474426 328.17709534 -302.41201782 327.12332153 C-302.64254502 283.89025898 -302.64254502 283.89025898 -299.1875 264.1875 C-298.98882324 263.0423291 -298.79014648 261.8971582 -298.58544922 260.71728516 C-292.72746327 228.04859201 -282.770483 196.31419095 -267.12597656 166.95849609 C-266.16498628 165.14501443 -265.2330699 163.31864428 -264.3046875 161.48828125 C-252.9394136 139.31687132 -238.05549596 118.89231971 -221.296875 100.515625 C-219.43074433 98.45596967 -217.61680212 96.36361105 -215.8125 94.25 C-208.88953468 86.31509312 -201.28105513 78.91890451 -193.1875 72.1875 C-192.65060547 71.73681152 -192.11371094 71.28612305 -191.56054688 70.82177734 C-175.72308784 57.56319867 -159.26466712 46.17887928 -141.1875 36.1875 C-140.43275391 35.76227051 -139.67800781 35.33704102 -138.90039062 34.89892578 C-96.41011165 11.01880141 -48.48725809 -0.06696279 0 0 Z " fill="#FA70A9" transform="translate(433.1875,89.8125)"/>
<path d="M0 0 C24.81514461 21.49270113 43.43227316 51.43461028 51.875 83.1875 C52.14957031 84.19167969 52.42414063 85.19585937 52.70703125 86.23046875 C53.49018615 89.21263004 54.23292687 92.17116744 54.875 95.1875 C55.04563965 95.96311279 55.2162793 96.73872559 55.39208984 97.5378418 C57.29601294 107.27818961 57.27122342 116.98971681 57.25 126.875 C57.24978851 127.78079803 57.24957703 128.68659607 57.24935913 129.61984253 C57.15478899 170.25228519 46.35525306 207.19038668 17.00097656 236.42993164 C-8.24471055 260.79151451 -45.44006639 271.23336367 -79.828125 271.390625 C-80.82720886 271.39632507 -81.82629272 271.40202515 -82.85565186 271.40789795 C-84.96332766 271.41729019 -87.07101777 271.42385875 -89.17871094 271.42773438 C-92.32514843 271.43734769 -95.47090526 271.468389 -98.6171875 271.5 C-115.92226229 271.59147137 -133.43987401 270.59052981 -150.0625 265.375 C-151.35148193 264.98598511 -151.35148193 264.98598511 -152.66650391 264.58911133 C-169.80383363 259.30219877 -185.40196783 251.89544009 -199.125 240.1875 C-199.92164063 239.52363281 -200.71828125 238.85976563 -201.5390625 238.17578125 C-228.21956847 215.17107254 -240.8099833 180.68366097 -243.91845703 146.24365234 C-246.87327034 102.52219486 -236.80399312 58.96149213 -209.125 24.1875 C-208.69219727 23.6419043 -208.25939453 23.09630859 -207.81347656 22.53417969 C-184.09533574 -7.03986442 -150.2278273 -31.13191416 -111.65795898 -35.61181641 C-69.24524132 -38.97213004 -32.51809176 -27.4107254 0 0 Z " fill="#FEFEFE" transform="translate(517.125,211.8125)"/>
<path d="M0 0 C0.72316406 0.46277344 1.44632812 0.92554688 2.19140625 1.40234375 C11.92019327 8.32247226 18.64107495 18.24186055 25.07421875 28.1171875 C30.43746768 36.14574269 37.14356867 45.57178433 46 50 C46.11717972 68.38575864 46.20515683 86.77141938 46.25906086 105.15747166 C46.28476283 113.69584758 46.31975863 122.2339905 46.37719727 130.7722168 C46.42727918 138.22046625 46.45934909 145.66854682 46.47044247 153.11695999 C46.47691968 157.05519695 46.49197193 160.9929511 46.52865028 164.93103218 C46.56300363 168.65019106 46.57297542 172.36867587 46.56553841 176.08797836 C46.56753482 178.07831757 46.59422142 180.06858614 46.62210083 182.05873108 C46.53596505 197.39582172 41.52999843 209.6003488 31.19921875 220.984375 C20.63210295 231.21207595 7.72053472 234.3008731 -6.51220703 234.31469727 C-18.44214541 234.09701646 -28.80754278 228.721292 -37.515625 220.67578125 C-42.5611579 215.35458182 -46.38698065 209.86632822 -49 203 C-49.36817022 202.07403802 -49.36817022 202.07403802 -49.74377823 201.12936974 C-52.63077646 192.92410976 -52.46681803 184.75039823 -52.48339844 176.17431641 C-52.49730816 174.48789003 -52.51238547 172.80147295 -52.52853394 171.11506653 C-52.56765744 166.5592163 -52.58718982 162.00349814 -52.60056591 157.44750643 C-52.60939432 154.59532081 -52.62171498 151.74317039 -52.63507843 148.89100266 C-52.67602855 139.94972216 -52.7050688 131.00852319 -52.7166841 122.06715548 C-52.73012964 111.77666417 -52.78281796 101.48736765 -52.86968589 91.19723952 C-52.93467398 83.2198218 -52.9648039 75.24273927 -52.96880746 67.26505983 C-52.97194059 62.51023825 -52.98942218 57.75654355 -53.0432663 53.00200272 C-53.09295619 48.52800935 -53.09906239 44.05598025 -53.07284927 39.58180809 C-53.07055138 37.94842805 -53.0833927 36.31493868 -53.11322403 34.68182945 C-53.31185726 23.12189785 -51.20128793 16.53796253 -43 8 C-31.57904467 -3.79921652 -15.20052934 -9.77385284 0 0 Z " fill="#4E56A6" transform="translate(447,528)"/>
<path d="M0 0 C12.21757146 7.22098313 19.50088548 18.46726526 27.328125 29.9140625 C36.68791573 43.94732528 36.68791573 43.94732528 50.625 52.6875 C50.76471536 63.52816611 50.87098137 74.36861407 50.93587303 85.21000099 C50.96703582 90.24547002 51.00922962 95.28031798 51.07763672 100.31542969 C51.14337128 105.1849302 51.17881888 110.05383766 51.19426346 114.92374802 C51.20525363 116.77113542 51.22671213 118.61849453 51.25938034 120.46562576 C51.52769256 136.28188834 49.23329639 147.73302284 37.87109375 159.6015625 C34.39357929 162.83111506 30.97021231 165.72807151 26.6875 167.8125 C26.05972656 168.12445312 25.43195312 168.43640625 24.78515625 168.7578125 C14.29820066 173.27118579 0.66575015 173.83324264 -10.0625 169.625 C-21.97564504 163.63486932 -31.05326211 154.44789198 -35.375 141.6875 C-37.48494767 134.77964959 -37.70171494 128.32103198 -37.74487305 121.12451172 C-37.75962173 119.88452423 -37.77437042 118.64453674 -37.78956604 117.36697388 C-37.83391706 113.28371272 -37.86243538 109.20060245 -37.88671875 105.1171875 C-37.89613705 103.70572993 -37.90563162 102.29427287 -37.91520119 100.88281631 C-37.95362066 95.0132189 -37.98684186 89.14363516 -38.00557232 83.27393913 C-38.03242179 74.88398911 -38.09016867 66.49557442 -38.19133729 58.10618007 C-38.26021187 52.19174337 -38.29453685 46.27771498 -38.30313712 40.36288655 C-38.30913376 36.83539619 -38.33001993 33.30949227 -38.38770103 29.78243637 C-38.45102814 25.8517303 -38.44285921 21.92292654 -38.4284668 17.99169922 C-38.45768219 16.8289447 -38.48689758 15.66619019 -38.51699829 14.46820068 C-38.40780548 6.78651739 -38.40780548 6.78651739 -35.476511 3.66730118 C-25.16636795 -3.44216727 -11.56284538 -5.25859416 0 0 Z " fill="#4E56A6" transform="translate(598.375,526.3125)"/>
<path d="M0 0 C11.84566521 6.98507976 19.24676593 18.1640615 26.84373474 29.29493713 C28.48002815 31.62762565 28.48002815 31.62762565 30.37490845 33.46891785 C36.89402406 40.35582154 36.53824521 47.64210134 36.38671875 56.578125 C36.38380822 58.12595354 36.3834333 59.67378869 36.38545227 61.22161865 C36.38224773 64.45641389 36.35545203 67.68984018 36.31030273 70.92431641 C36.25382572 75.03395703 36.24543012 79.14188482 36.25371075 83.25185013 C36.25653399 86.44709658 36.23876041 89.64197362 36.21457863 92.83712006 C36.20448878 94.35028358 36.19926993 95.86348894 36.19937706 97.3766861 C36.17019584 112.74818603 32.96012209 126.50059178 22.5625 138.3125 C13.89852012 146.45548332 1.03556701 151.17797874 -10.734375 150.87109375 C-20.16511812 150.01251454 -27.69747704 146.99008061 -35.4375 141.625 C-36.345 141.00625 -37.2525 140.3875 -38.1875 139.75 C-46.31117866 132.07763682 -52.02832645 121.17205126 -52.63850403 109.91755676 C-52.67789505 108.39934395 -52.71182107 106.88098343 -52.74145508 105.36254883 C-52.76087662 104.53095749 -52.78029816 103.69936615 -52.80030823 102.84257507 C-52.96944778 95.1479654 -53.0659575 87.45199995 -53.14137745 79.7559557 C-53.192587 74.5977492 -53.26666225 69.4422487 -53.39770508 64.28540039 C-53.52433454 59.28135 -53.58991786 54.2797301 -53.61496544 49.27417564 C-53.63439707 47.38157795 -53.67440829 45.48905908 -53.73682594 43.59739113 C-54.20217108 28.79451297 -50.5660984 19.54276237 -40.4375 8.625 C-29.4453599 -2.29802009 -14.55979232 -6.65752162 0 0 Z " fill="#4E56A6" transform="translate(291.4375,526.375)"/>
<path d="M0 0 C5.49047175 4.08265848 9.47842276 9.03846038 13.70654297 14.38720703 C15.03130714 16.03903643 16.38806684 17.65936401 17.75390625 19.27734375 C37.21504881 42.56437748 51.69154301 69.95969195 63 98 C63.36077637 98.8859082 63.72155273 99.77181641 64.09326172 100.68457031 C72.20883553 120.88183515 81 145.99570576 81 168 C81.66 168 82.32 168 83 168 C86.70565368 198.34003951 85.52618552 228.71355381 82 259 C81.87141602 260.12019531 81.74283203 261.24039062 81.61035156 262.39453125 C76.92426676 301.0755977 64.08946084 346.11010589 38 376 C35.78125 377.73046875 35.78125 377.73046875 33.5 379.1875 C32.7471875 379.67605469 31.994375 380.16460938 31.21875 380.66796875 C30.12046875 381.32732422 30.12046875 381.32732422 29 382 C28.41734375 382.38027344 27.8346875 382.76054688 27.234375 383.15234375 C23.80578694 384.45304936 20.36886267 384.38126169 16.75 384.375 C15.61026733 384.37693359 15.61026733 384.37693359 14.44750977 384.37890625 C8.69535493 384.27010676 4.82448626 383.2847566 0 380 C1.3937565 375.14409306 3.59276446 371.18369592 6.25 366.9375 C20.60340548 343.22867779 31.07640651 317.4871022 39 291 C39.19722656 290.34483398 39.39445313 289.68966797 39.59765625 289.01464844 C43.92223439 274.56662602 46.68996909 260.23754224 48.625 245.3125 C48.84321762 243.67375714 49.06196504 242.03508475 49.28125 240.39648438 C49.79120837 236.56435287 50.28430772 232.73042378 50.76293945 228.89425659 C50.95739874 227.34040974 51.15844139 225.7873881 51.36132812 224.23461914 C52.31572705 216.13166924 52.24292995 207.96051933 52.25 199.8125 C52.25100708 199.00441895 52.25201416 198.19633789 52.25305176 197.36376953 C52.23431815 174.93193025 50.40642763 152.68978593 45.59765625 130.73925781 C44.92837488 127.67171822 44.2929055 124.59790805 43.65625 121.5234375 C40.54206372 106.74054713 36.71215238 92.34988286 32 78 C31.67692871 76.99710937 31.35385742 75.99421875 31.02099609 74.9609375 C23.37081302 51.33308614 13.44041851 28.72446332 2.609375 6.39453125 C1 3 1 3 0 0 Z " fill="#E24CA6" transform="translate(651,198)"/>
<path d="M0 0 C0.98613281 -0.01611328 1.97226562 -0.03222656 2.98828125 -0.04882812 C16.99440162 -0.05805482 29.32895514 5.33454144 39.55078125 14.9140625 C52.13238469 28.6353849 58.58089478 44.93062412 58.09765625 63.671875 C56.45716011 80.85100315 49.53708628 96.22276071 36.81640625 108.12109375 C22.46843908 119.60543338 6.5519408 121.90446392 -11.25 120.3125 C-15.7522266 119.27173761 -19.30875076 117.69166875 -23.25 115.3125 C-24.19875 114.78140625 -25.1475 114.2503125 -26.125 113.703125 C-40.69469616 105.07216369 -49.41277257 92.38284343 -54.1484375 76.28125 C-58.46958418 59.07936464 -55.13870755 41.40653168 -46.25 26.3125 C-38.99308761 15.21369281 -29.46410148 7.40170895 -17.25 2.3125 C-16.3734375 1.93609375 -15.496875 1.5596875 -14.59375 1.171875 C-9.72375023 -0.07976046 -5.00800815 -0.01611328 0 0 Z " fill="#050977" transform="translate(382.25,222.6875)"/>
<path d="M0 0 C6.65126009 3.7341949 10.64471598 8.24211339 14.5625 14.6875 C16.78424231 22.65963415 16.86323828 31.0124918 12.9375 38.44140625 C7.99896514 46.18726301 2.62467315 50.96847904 -6.375 53.5 C-15.13364093 54.78586546 -22.08479616 53.55693717 -29.375 48.5 C-35.30343527 44.0080702 -38.63092889 38.73428314 -40.375 31.5 C-41.50606255 22.67304797 -40.24385985 14.75426059 -34.90234375 7.5 C-25.51005931 -2.80264771 -12.79326485 -5.83692709 0 0 Z " fill="#FCFCFD" transform="translate(386.375,243.5)"/>
<path d="M0 0 C2.5625 2.25 2.5625 2.25 4 4 C3.38253906 4.268125 2.76507813 4.53625 2.12890625 4.8125 C-10.96477329 10.87106709 -17.58189338 20.14106186 -25 32 C-39.76622621 55.45973573 -39.76622621 55.45973573 -49 61 C-49.66 61 -50.32 61 -51 61 C-51.19934411 55.22017077 -51.34366129 49.44238641 -51.43945312 43.65991211 C-51.47942378 41.69764305 -51.53382235 39.73560826 -51.60351562 37.77416992 C-52.28692865 18.03056875 -52.28692865 18.03056875 -45.07177734 10.00317383 C-44.38809082 9.34212646 -43.7044043 8.6810791 -43 8 C-42.12472656 7.030625 -41.24945313 6.06125 -40.34765625 5.0625 C-29.3914794 -4.82615193 -13.21135182 -8.76807206 0 0 Z " fill="#363C74" transform="translate(447,528)"/>
<path d="M0 0 C1.10831177 0.00253784 1.10831177 0.00253784 2.23901367 0.00512695 C9.28706699 0.23346891 15.11855994 2.32194044 20.8125 6.5625 C23.13671875 9.26953125 23.13671875 9.26953125 24.8125 11.5625 C24.3278125 11.89121094 23.843125 12.21992187 23.34375 12.55859375 C13.61059732 19.46538864 7.52294061 28.20923235 1.5 38.375 C-11.70813454 60.0912187 -11.70813454 60.0912187 -21.1875 64.5625 C-21.33962346 56.6790438 -21.44470547 48.79596592 -21.51708984 40.91137695 C-21.54387723 38.22898556 -21.58562152 35.54744627 -21.64013672 32.86547852 C-21.71291572 29.01033184 -21.74695182 25.15648948 -21.7734375 21.30078125 C-21.81988907 19.50209343 -21.81988907 19.50209343 -21.86727905 17.66706848 C-21.87055722 9.55977 -21.87055722 9.55977 -19.93006897 6.72663879 C-14.11660296 1.7275386 -7.45148695 -0.02470483 0 0 Z " fill="#363C74" transform="translate(583.1875,523.4375)"/>
<path d="M0 0 C1.1127832 0.00314209 1.1127832 0.00314209 2.24804688 0.00634766 C8.4901266 0.18457618 13.64648537 1.64922494 18.6875 5.5 C19.1825 6.49 19.1825 6.49 19.6875 7.5 C18.98625 7.59796875 18.285 7.6959375 17.5625 7.796875 C5.48594477 9.70024512 -2.54857702 14.22160088 -9.85644531 24.10888672 C-14.43602649 30.48469316 -18.58435834 37.09845369 -22.68701172 43.78710938 C-31.09540042 57.35526695 -31.09540042 57.35526695 -37.3125 61.5 C-39.64521215 27.69660836 -39.64521215 27.69660836 -30.29516602 16.46459961 C-28.69653892 14.72655601 -27.04370369 13.10497552 -25.3125 11.5 C-24.39597656 10.61699219 -23.47945312 9.73398437 -22.53515625 8.82421875 C-15.73686514 2.92677978 -8.99233002 -0.07527516 0 0 Z " fill="#373C74" transform="translate(276.3125,523.5)"/>
<path d="M0 0 C0.66 0 1.32 0 2 0 C4.47740993 7.61203313 6.19084061 15.26640778 7.6875 23.125 C7.91244141 24.25292969 8.13738281 25.38085938 8.36914062 26.54296875 C9.50939176 32.46950198 10.2729628 37.9653089 10 44 C7.72124107 40.58186161 7.0895116 37.46484217 6.30859375 33.515625 C6.158423 32.78180603 6.00825226 32.04798706 5.85353088 31.29193115 C5.53703087 29.73919469 5.22370659 28.18580801 4.91333008 26.63183594 C4.44176976 24.27137292 3.96106203 21.91292653 3.47851562 19.5546875 C3.17133395 18.04177642 2.86467663 16.52875876 2.55859375 15.015625 C2.41691269 14.31745667 2.27523163 13.61928833 2.1292572 12.89996338 C1.27455069 8.61093754 0.58155206 4.33219256 0 0 Z " fill="#F778AF" transform="translate(723,322)"/>
</svg>
